<mxfile host="app.diagrams.net" modified="2024-06-03T15:52:34.443Z" agent="Mozilla/5.0 (Windows NT 10.0; Win64; x64) AppleWebKit/537.36 (KHTML, like Gecko) Chrome/125.0.0.0 Safari/537.36" etag="P7nC03ODSFWmBOkXdb1Z" version="24.4.10" type="google">
  <diagram name="Страница — 1" id="qD_zyh2KDx8TZjqjgXZ5">
    <mxGraphModel grid="1" page="1" gridSize="10" guides="1" tooltips="1" connect="1" arrows="1" fold="1" pageScale="1" pageWidth="827" pageHeight="1169" math="0" shadow="0">
      <root>
        <mxCell id="0" />
        <mxCell id="1" parent="0" />
        <mxCell id="9SqPvRLugbioRcgANdwd-1" value="&lt;font size=&quot;3&quot;&gt;Оператор&lt;/font&gt;" style="ellipse;whiteSpace=wrap;html=1;" vertex="1" parent="1">
          <mxGeometry x="318.57000000000005" y="610" width="120" height="80" as="geometry" />
        </mxCell>
        <mxCell id="9SqPvRLugbioRcgANdwd-2" value="&lt;font style=&quot;font-size: 14px;&quot;&gt;Відображення зображення&lt;/font&gt;" style="rounded=0;whiteSpace=wrap;html=1;" vertex="1" parent="1">
          <mxGeometry x="219.26000000000005" y="460" width="120" height="60" as="geometry" />
        </mxCell>
        <mxCell id="9SqPvRLugbioRcgANdwd-3" value="&lt;font style=&quot;font-size: 14px;&quot;&gt;Аналіз зображення&lt;/font&gt;" style="rounded=0;whiteSpace=wrap;html=1;" vertex="1" parent="1">
          <mxGeometry x="400.00000000000006" y="460" width="120" height="60" as="geometry" />
        </mxCell>
        <mxCell id="WoQu3zvmWL42ndfegvwA-4" style="edgeStyle=orthogonalEdgeStyle;rounded=0;orthogonalLoop=1;jettySize=auto;html=1;entryX=0.75;entryY=0;entryDx=0;entryDy=0;exitX=0.25;exitY=1;exitDx=0;exitDy=0;" edge="1" parent="1" source="9SqPvRLugbioRcgANdwd-4" target="9SqPvRLugbioRcgANdwd-2">
          <mxGeometry relative="1" as="geometry" />
        </mxCell>
        <mxCell id="WoQu3zvmWL42ndfegvwA-5" style="edgeStyle=orthogonalEdgeStyle;rounded=0;orthogonalLoop=1;jettySize=auto;html=1;entryX=0.25;entryY=0;entryDx=0;entryDy=0;" edge="1" parent="1" source="9SqPvRLugbioRcgANdwd-4" target="9SqPvRLugbioRcgANdwd-3">
          <mxGeometry relative="1" as="geometry">
            <mxPoint x="469" y="470" as="targetPoint" />
            <Array as="points">
              <mxPoint x="340" y="420" />
              <mxPoint x="430" y="420" />
            </Array>
          </mxGeometry>
        </mxCell>
        <mxCell id="xjdqpLMtd4XKEqkAR9Wb-2" style="edgeStyle=orthogonalEdgeStyle;rounded=0;orthogonalLoop=1;jettySize=auto;html=1;entryX=0.5;entryY=0;entryDx=0;entryDy=0;" edge="1" parent="1" source="9SqPvRLugbioRcgANdwd-4" target="xjdqpLMtd4XKEqkAR9Wb-1">
          <mxGeometry relative="1" as="geometry">
            <Array as="points">
              <mxPoint x="370" y="380" />
              <mxPoint x="640" y="380" />
            </Array>
          </mxGeometry>
        </mxCell>
        <mxCell id="9SqPvRLugbioRcgANdwd-4" value="&lt;font style=&quot;font-size: 14px;&quot;&gt;Формування інтерфейсу користувача&lt;/font&gt;" style="rounded=0;whiteSpace=wrap;html=1;" vertex="1" parent="1">
          <mxGeometry x="280" y="280" width="120" height="60" as="geometry" />
        </mxCell>
        <mxCell id="WoQu3zvmWL42ndfegvwA-1" style="edgeStyle=orthogonalEdgeStyle;rounded=0;orthogonalLoop=1;jettySize=auto;html=1;entryX=0.75;entryY=0;entryDx=0;entryDy=0;" edge="1" parent="1" source="9SqPvRLugbioRcgANdwd-5" target="9SqPvRLugbioRcgANdwd-4">
          <mxGeometry relative="1" as="geometry" />
        </mxCell>
        <mxCell id="9SqPvRLugbioRcgANdwd-5" value="&lt;font style=&quot;font-size: 14px;&quot;&gt;Розпізнавання&lt;/font&gt;" style="rounded=0;whiteSpace=wrap;html=1;" vertex="1" parent="1">
          <mxGeometry x="430" y="220" width="120" height="60" as="geometry" />
        </mxCell>
        <mxCell id="WoQu3zvmWL42ndfegvwA-2" style="edgeStyle=orthogonalEdgeStyle;rounded=0;orthogonalLoop=1;jettySize=auto;html=1;entryX=0.5;entryY=0;entryDx=0;entryDy=0;" edge="1" parent="1" source="9SqPvRLugbioRcgANdwd-6" target="9SqPvRLugbioRcgANdwd-4">
          <mxGeometry relative="1" as="geometry" />
        </mxCell>
        <mxCell id="9SqPvRLugbioRcgANdwd-6" value="&lt;span style=&quot;font-size: 14px;&quot;&gt;Формування фотокартки&lt;/span&gt;" style="rounded=0;whiteSpace=wrap;html=1;" vertex="1" parent="1">
          <mxGeometry x="280" y="160" width="120" height="60" as="geometry" />
        </mxCell>
        <mxCell id="WoQu3zvmWL42ndfegvwA-3" style="edgeStyle=orthogonalEdgeStyle;rounded=0;orthogonalLoop=1;jettySize=auto;html=1;entryX=0.5;entryY=0;entryDx=0;entryDy=0;" edge="1" parent="1" source="9SqPvRLugbioRcgANdwd-7" target="9SqPvRLugbioRcgANdwd-6">
          <mxGeometry relative="1" as="geometry" />
        </mxCell>
        <mxCell id="9SqPvRLugbioRcgANdwd-7" value="&lt;font style=&quot;font-size: 14px;&quot;&gt;Камера&lt;/font&gt;" style="rounded=0;whiteSpace=wrap;html=1;" vertex="1" parent="1">
          <mxGeometry x="280" y="20" width="120" height="60" as="geometry" />
        </mxCell>
        <mxCell id="9SqPvRLugbioRcgANdwd-14" style="edgeStyle=orthogonalEdgeStyle;rounded=0;orthogonalLoop=1;jettySize=auto;html=1;entryX=1;entryY=0.5;entryDx=0;entryDy=0;" edge="1" parent="1" source="9SqPvRLugbioRcgANdwd-8" target="9SqPvRLugbioRcgANdwd-5">
          <mxGeometry relative="1" as="geometry" />
        </mxCell>
        <mxCell id="9SqPvRLugbioRcgANdwd-8" value="&lt;font style=&quot;font-size: 14px;&quot;&gt;Оновлення моделі&lt;/font&gt;" style="rounded=0;whiteSpace=wrap;html=1;" vertex="1" parent="1">
          <mxGeometry x="600" y="220" width="120" height="60" as="geometry" />
        </mxCell>
        <mxCell id="9SqPvRLugbioRcgANdwd-19" value="" style="endArrow=none;html=1;rounded=0;" edge="1" parent="1">
          <mxGeometry width="50" height="50" relative="1" as="geometry">
            <mxPoint x="198.57000000000005" y="570" as="sourcePoint" />
            <mxPoint x="200" y="400" as="targetPoint" />
          </mxGeometry>
        </mxCell>
        <mxCell id="9SqPvRLugbioRcgANdwd-20" value="" style="endArrow=none;html=1;rounded=0;" edge="1" parent="1">
          <mxGeometry width="50" height="50" relative="1" as="geometry">
            <mxPoint x="198.57000000000005" y="570" as="sourcePoint" />
            <mxPoint x="720" y="570" as="targetPoint" />
          </mxGeometry>
        </mxCell>
        <mxCell id="9SqPvRLugbioRcgANdwd-21" value="" style="endArrow=none;html=1;rounded=0;" edge="1" parent="1">
          <mxGeometry width="50" height="50" relative="1" as="geometry">
            <mxPoint x="720" y="570" as="sourcePoint" />
            <mxPoint x="720" y="400" as="targetPoint" />
          </mxGeometry>
        </mxCell>
        <mxCell id="9SqPvRLugbioRcgANdwd-22" value="" style="endArrow=none;html=1;rounded=0;" edge="1" parent="1">
          <mxGeometry width="50" height="50" relative="1" as="geometry">
            <mxPoint x="198.57000000000005" y="400" as="sourcePoint" />
            <mxPoint x="720" y="400" as="targetPoint" />
          </mxGeometry>
        </mxCell>
        <mxCell id="9SqPvRLugbioRcgANdwd-23" value="" style="endArrow=none;html=1;rounded=0;" edge="1" parent="1">
          <mxGeometry width="50" height="50" relative="1" as="geometry">
            <mxPoint x="160" y="140" as="sourcePoint" />
            <mxPoint x="760" y="140" as="targetPoint" />
          </mxGeometry>
        </mxCell>
        <mxCell id="9SqPvRLugbioRcgANdwd-25" value="" style="endArrow=none;html=1;rounded=0;" edge="1" parent="1">
          <mxGeometry width="50" height="50" relative="1" as="geometry">
            <mxPoint x="160" y="140" as="sourcePoint" />
            <mxPoint x="160" y="360" as="targetPoint" />
          </mxGeometry>
        </mxCell>
        <mxCell id="9SqPvRLugbioRcgANdwd-26" value="" style="endArrow=none;html=1;rounded=0;" edge="1" parent="1">
          <mxGeometry width="50" height="50" relative="1" as="geometry">
            <mxPoint x="160" y="360" as="sourcePoint" />
            <mxPoint x="760" y="360" as="targetPoint" />
          </mxGeometry>
        </mxCell>
        <mxCell id="9SqPvRLugbioRcgANdwd-27" value="" style="endArrow=none;html=1;rounded=0;" edge="1" parent="1">
          <mxGeometry width="50" height="50" relative="1" as="geometry">
            <mxPoint x="760" y="360" as="sourcePoint" />
            <mxPoint x="760" y="140" as="targetPoint" />
          </mxGeometry>
        </mxCell>
        <mxCell id="9SqPvRLugbioRcgANdwd-28" value="" style="endArrow=classic;startArrow=classic;html=1;rounded=0;entryX=0.5;entryY=0;entryDx=0;entryDy=0;" edge="1" parent="1" target="9SqPvRLugbioRcgANdwd-1">
          <mxGeometry width="50" height="50" relative="1" as="geometry">
            <mxPoint x="379.26" y="570" as="sourcePoint" />
            <mxPoint x="389.26" y="680" as="targetPoint" />
          </mxGeometry>
        </mxCell>
        <mxCell id="xjdqpLMtd4XKEqkAR9Wb-1" value="&lt;font style=&quot;font-size: 14px;&quot;&gt;Встановлення порогу впевненості&lt;/font&gt;" style="rounded=0;whiteSpace=wrap;html=1;" vertex="1" parent="1">
          <mxGeometry x="580" y="460" width="120" height="60" as="geometry" />
        </mxCell>
        <mxCell id="xjdqpLMtd4XKEqkAR9Wb-3" value="&lt;span style=&quot;font-size: 14px;&quot;&gt;Інтерфейс&lt;/span&gt;" style="text;html=1;align=center;verticalAlign=middle;whiteSpace=wrap;rounded=0;" vertex="1" parent="1">
          <mxGeometry x="219.26" y="410" width="60" height="30" as="geometry" />
        </mxCell>
        <mxCell id="xjdqpLMtd4XKEqkAR9Wb-4" value="&lt;font style=&quot;font-size: 14px;&quot;&gt;Система&lt;/font&gt;" style="text;html=1;align=center;verticalAlign=middle;whiteSpace=wrap;rounded=0;" vertex="1" parent="1">
          <mxGeometry x="170" y="150" width="60" height="30" as="geometry" />
        </mxCell>
      </root>
    </mxGraphModel>
  </diagram>
</mxfile>
